<svg width="143" height="142" viewBox="0 0 143 142" fill="none" xmlns="http://www.w3.org/2000/svg">
<g filter="url(#filter0_b_131_642)">
<rect x="0.572266" width="141.857" height="141.857" rx="16" fill="#636363" fill-opacity="0.2"/>
<rect x="1.07227" y="0.5" width="140.857" height="140.857" rx="15.5" stroke="white" stroke-opacity="0.1"/>
</g>
<path d="M69.1374 29.9887C66.5215 29.9675 63.9289 30.5155 61.5165 31.5992C59.1732 32.625 57.0943 34.13 55.3611 36.0707C55.3551 36.0774 55.3518 36.086 55.3518 36.0949C55.3518 36.1002 55.3507 36.1054 55.3484 36.1102L55.3477 36.1119C55.3459 36.1156 55.3437 36.1191 55.341 36.1222C53.6555 38.0816 52.3504 40.4339 51.4394 43.1135C50.5072 45.7881 50.0581 48.7177 50.0581 51.8586C50.0581 55.0287 50.5004 57.9874 51.4394 60.6692C52.357 63.2974 53.6618 65.6201 55.34 67.5865C55.3433 67.5904 55.3461 67.5947 55.3483 67.5994C55.3507 67.6044 55.3537 67.6091 55.3574 67.6132C57.0821 69.5533 59.1453 71.0799 61.4727 72.1498C61.4787 72.1526 61.4825 72.1586 61.4825 72.1652C61.4825 72.1719 61.4865 72.178 61.4926 72.1806C63.8442 73.2052 66.4059 73.7066 69.1033 73.7066C71.7885 73.7066 74.3378 73.2047 76.697 72.1792C76.7011 72.1774 76.7038 72.1733 76.7038 72.1689C76.7038 72.1645 76.7063 72.1605 76.7103 72.1586C79.0415 71.0875 81.0873 69.5582 82.7732 67.6069C84.5083 65.6539 85.8351 63.3073 86.7605 60.6692C87.6962 57.997 88.1454 55.0498 88.1486 51.8854C88.1486 51.8666 88.1638 51.8513 88.1826 51.8513C88.2014 51.8513 88.2166 51.836 88.2166 51.8172C88.2134 48.6965 87.771 45.7857 86.8354 43.1208C85.9713 40.5142 84.6164 38.1256 82.8548 36.1029C81.1542 34.1395 79.0702 32.6017 76.7514 31.5992C74.3394 30.5145 71.7533 29.9665 69.1374 29.9887ZM69.3007 88.3036C53.5351 88.3036 45.0705 89.8558 38.7766 94.9352C35.633 97.4858 33.5577 100.947 32.3873 104.977C30.4467 111.66 36.4848 117.441 43.4431 117.444L69.1374 117.454H94.8187C101.786 117.454 107.861 111.665 105.908 104.977C104.737 100.947 102.662 97.4931 99.5118 94.9498C93.2314 89.8704 85.0594 88.3036 69.3007 88.3036Z" fill="#F0F0F0"/>
<defs>
<filter id="filter0_b_131_642" x="-39.4277" y="-40" width="221.857" height="221.857" filterUnits="userSpaceOnUse" color-interpolation-filters="sRGB">
<feFlood flood-opacity="0" result="BackgroundImageFix"/>
<feGaussianBlur in="BackgroundImageFix" stdDeviation="20"/>
<feComposite in2="SourceAlpha" operator="in" result="effect1_backgroundBlur_131_642"/>
<feBlend mode="normal" in="SourceGraphic" in2="effect1_backgroundBlur_131_642" result="shape"/>
</filter>
</defs>
</svg>
