<svg width="17" height="17" viewBox="0 0 17 17" fill="none" xmlns="http://www.w3.org/2000/svg">
<path d="M1 6.83333H16M4.33333 1V2.66667M12.6667 1V2.66667M3.66667 16H13.3333C14.2667 16 14.7335 16 15.09 15.8183C15.4036 15.6586 15.6586 15.4036 15.8183 15.09C16 14.7335 16 14.2667 16 13.3333V5.33333C16 4.39991 16 3.9332 15.8183 3.57668C15.6586 3.26307 15.4036 3.00811 15.09 2.84832C14.7335 2.66667 14.2667 2.66667 13.3333 2.66667H3.66667C2.73325 2.66667 2.26653 2.66667 1.91002 2.84832C1.59641 3.00811 1.34144 3.26307 1.18166 3.57668C1 3.9332 1 4.39991 1 5.33333V13.3333C1 14.2667 1 14.7335 1.18166 15.09C1.34144 15.4036 1.59641 15.6586 1.91002 15.8183C2.26653 16 2.73324 16 3.66667 16Z" stroke="white" stroke-width="2" stroke-linecap="round" stroke-linejoin="round"/>
</svg>
