<svg width="405" height="322" viewBox="0 0 405 322" fill="none" xmlns="http://www.w3.org/2000/svg">
<path d="M261.485 17.1451C259.056 15.7819 256.288 15.0151 253.902 13.6306C253.288 13.2023 252.75 12.6772 252.304 12.0757C249.576 8.85111 246.481 5.95602 243.081 3.44922C243.925 4.95321 244.903 6.37882 246 7.70922C246.66 8.53992 245.19 11.0959 244.21 10.3291C243.231 9.56232 242.464 9.02982 241.548 8.41212C240.519 7.57695 239.35 6.92815 238.097 6.49512C239.239 8.53204 240.587 10.445 242.123 12.2035C242.805 13.0129 241.314 15.5263 240.313 14.8021C238.434 13.4361 236.47 12.1912 234.434 11.0746C236.5 13.8519 238.841 16.4137 241.42 18.7213C242.144 19.4029 240.952 21.2986 240.142 21.3838C238.183 21.5755 236.18 21.7885 234.221 22.1506C241.335 25.6864 248.534 23.4925 251.495 24.7705C259.425 28.3849 266.443 33.7353 272.028 40.426C278.972 48.7969 281.145 59.596 275.181 69.0745C273.604 71.5685 271.77 73.889 269.706 75.997C271.447 80.1808 272.648 84.5679 273.285 89.0539C280.354 83.5432 285.322 75.7783 287.364 67.051C290.921 50.0323 282.572 28.9027 261.485 17.1451Z" fill="#2F2F2F"/>
<path d="M271.24 92.1001C270.069 81.6003 265.666 71.7239 258.637 63.8365C251.608 55.9489 242.302 50.4405 232.006 48.073C221.967 45.736 211.449 46.5993 201.925 50.5421C192.401 54.485 184.35 61.3093 178.901 70.0585C173.452 78.8076 170.878 89.0429 171.539 99.3291C172.201 109.615 176.065 119.436 182.59 127.416C189.048 135.397 197.766 141.242 207.6 144.188C217.437 147.133 227.931 147.041 237.714 143.923C248.368 140.393 257.498 133.332 263.594 123.909C269.69 114.486 272.386 103.265 271.24 92.1001ZM213.858 81.301C212.09 99.5764 191.834 101.323 186.381 88.2235C186.04 87.4141 186.85 86.3491 187.467 85.9444C195.846 80.338 205.023 76.0295 214.689 73.1644C223.616 70.4374 232.86 68.8906 242.187 68.5636C242.656 68.5636 242.805 68.9044 242.784 69.3517C242.762 69.799 242.784 70.3528 242.911 70.6936H256.117C257.502 70.6936 256.266 73.6543 255.01 73.6543H242.954C241.527 87.8401 227.618 95.4229 213.858 81.301Z" fill="#2F2F2F"/>
<path d="M232.304 148.183C244.79 145.258 255.819 137.971 263.409 127.634C270.996 117.297 274.642 104.589 273.69 91.8015C281.03 85.9689 286.41 78.0312 289.111 69.0531C294.138 50.7138 285.959 27.369 263.551 14.6316C260.995 13.1832 256.118 11.6709 254.754 10.116C253.674 8.89485 252.567 7.70205 251.432 6.53758C249.302 4.40758 246.596 1.14868 243.572 0.14758C241.25 -0.57662 239.759 1.48948 240.164 3.61948C239.58 3.22117 238.89 3.00796 238.183 3.00796C237.476 3.00796 236.786 3.22117 236.202 3.61948C235.663 4.17285 235.31 4.88193 235.195 5.64639C235.08 6.41084 235.209 7.19213 235.563 7.87948C233.561 7.04878 231.75 6.98488 231.005 8.98708C230.132 11.394 232.773 14.0352 234.179 15.654C235.158 16.7829 236.309 17.784 237.267 18.9768C236.5 18.9768 235.712 19.1898 234.945 19.3389C233.284 19.6158 230.984 19.8927 230.408 21.7884C229.833 23.6841 232.538 24.9621 234.115 25.5798C237.197 26.7381 240.471 27.3017 243.764 27.2412C246.173 26.9204 248.624 27.1984 250.899 28.0506C254.23 29.7899 257.427 31.7764 260.463 33.9933C276.48 45.687 282.998 60.1923 268.983 74.229C266.08 67.8814 261.922 62.1864 256.761 57.4865C251.6 52.7867 245.54 49.1787 238.95 46.8798C228.707 43.4739 217.669 43.2809 207.313 46.3266C196.958 49.3723 187.781 55.511 181.014 63.9198C174.298 72.3386 170.28 82.5886 169.486 93.3287C168.691 104.069 171.158 114.798 176.562 124.114C182.195 133.425 190.593 140.748 200.584 145.063C210.576 149.377 221.663 150.467 232.304 148.183ZM178.777 70.2885C183.604 62.6503 190.404 56.4584 198.46 52.3671C206.516 48.276 215.528 46.4376 224.542 47.0463C233.557 47.6553 242.241 50.6886 249.672 55.826C257.106 60.9633 263.012 68.0134 266.768 76.2312C269.747 82.5277 271.353 89.3858 271.481 96.3505C271.607 103.315 270.252 110.227 267.505 116.628C264.757 123.029 260.68 128.773 255.545 133.479C250.409 138.185 244.33 141.744 237.714 143.923C227.94 147.05 217.45 147.155 207.615 144.226C197.781 141.296 189.059 135.466 182.59 127.5C176.179 119.499 172.376 109.724 171.694 99.4935C171.012 89.2631 173.484 79.0698 178.777 70.2885ZM275.245 69.0744C281.209 59.5746 279.036 48.7968 272.093 40.4259C266.482 33.7249 259.436 28.3739 251.474 24.7704C248.599 23.535 241.208 25.6224 234.2 22.1505C236.159 21.7884 238.162 21.5754 240.121 21.3837C240.931 21.3837 242.123 19.4028 241.399 18.7212C238.833 16.4069 236.5 13.8458 234.434 11.0745C236.445 12.1993 238.387 13.4441 240.249 14.802C241.25 15.5262 242.741 13.0128 242.06 12.2034C240.517 10.4504 239.167 8.53658 238.034 6.49498C239.284 6.93376 240.451 7.58213 241.484 8.41198C242.4 9.02968 243.274 9.64738 244.147 10.329C245.02 11.0106 246.596 8.53978 245.936 7.70908C244.839 6.37868 243.862 4.95307 243.018 3.44908C246.422 5.95034 249.519 8.84607 252.241 12.0756C252.686 12.6771 253.225 13.2021 253.838 13.6305C256.224 14.9937 258.993 15.7605 261.421 17.145C282.402 28.8387 290.858 49.9683 287.365 67.0509C285.322 75.7781 280.355 83.543 273.285 89.0538C272.648 84.5678 271.447 80.1806 269.707 75.9969C271.792 73.892 273.65 71.5714 275.245 69.0744Z" fill="#919191"/>
<path d="M205.487 95.168C207.915 93.724 209.949 91.7029 211.41 89.2841C212.871 86.8652 213.711 84.1233 213.858 81.3017C223.805 91.5257 233.773 90.4607 239.141 83.4317C241.3 80.5849 242.621 77.1912 242.953 73.6337H255.116C256.372 73.6337 257.608 70.673 256.223 70.673H242.953C242.953 70.247 242.953 69.7997 242.826 69.3737C242.698 68.9477 242.826 68.543 242.229 68.543C227.854 69.0931 213.725 72.4658 200.652 78.4688C196.103 80.6139 191.73 83.1137 187.573 85.9451C186.956 86.3498 186.146 87.4148 186.487 88.2242C187.202 89.9914 188.28 91.5889 189.65 92.9138C191.021 94.2386 192.654 95.2613 194.445 95.9156C196.235 96.5699 198.143 96.8415 200.045 96.7128C201.947 96.584 203.8 96.0577 205.487 95.168ZM240.142 76.8287C239.976 77.5546 239.756 78.2666 239.481 78.9587L228.427 72.8243L231.941 72.2705L240.142 76.8287ZM238.012 81.749C237.204 82.8495 236.193 83.7827 235.03 84.4967L217.99 75.0608C219.843 74.5922 221.696 74.1449 223.57 73.7615L238.012 81.749ZM211.216 84.4328C211.048 85.1553 210.835 85.8667 210.577 86.5628L200.779 81.1739L203.293 80.0663L211.216 84.4328ZM209.086 89.3744C208.294 90.4858 207.286 91.4273 206.126 92.1434L193.346 85.0505C194.666 84.2837 196.008 83.5737 197.371 82.9205L209.086 89.3744Z" fill="#919191"/>
<path d="M186.931 76.6597C187.656 76.8088 188.295 75.7864 188.508 75.2752C189.573 72.6979 191.681 69.7585 194.727 69.4177C195.92 69.2899 196.857 66.3505 195.26 66.5422C191 66.9895 187.954 71.5264 186.463 75.0622C186.25 75.6373 186.228 76.4893 186.931 76.6597Z" fill="#919191"/>
<path d="M233.605 58.8932C230.538 56.7632 226.214 55.1231 222.572 56.8697C221.464 57.4022 220.911 60.3629 222.572 59.5322C225.32 58.2116 229.409 59.9369 231.923 61.6622C233.052 62.429 234.692 59.6813 233.605 58.8932Z" fill="#919191"/>
<path d="M228.446 92.0557C224.506 96.0814 217.626 100.576 211.875 97.1251C210.746 96.4648 209.127 99.2551 210.278 99.9154C216.668 103.685 224.612 98.8504 229.085 94.2922C230.023 93.3337 229.916 90.5434 228.446 92.0557Z" fill="#919191"/>
<path d="M194.628 114.273C192.73 114.65 191.023 115.678 189.802 117.179C188.581 118.68 187.922 120.56 187.94 122.495C187.916 123.443 188.091 124.385 188.454 125.26C188.816 126.136 189.358 126.926 190.044 127.58C190.73 128.234 191.545 128.737 192.437 129.058C193.33 129.378 194.279 129.507 195.224 129.439C197.105 129.1 198.81 128.123 200.052 126.671C201.294 125.219 201.997 123.383 202.04 121.473C202.099 120.494 201.946 119.513 201.592 118.598C201.237 117.684 200.689 116.856 199.985 116.173C199.282 115.489 198.439 114.966 197.514 114.638C196.589 114.31 195.605 114.186 194.628 114.273ZM190.368 121.196C190.398 120.58 190.561 119.978 190.846 119.432C191.131 118.885 191.532 118.407 192.02 118.03C192.508 117.653 193.072 117.387 193.673 117.25C194.274 117.112 194.898 117.107 195.501 117.234C196.7 117.503 197.773 118.169 198.546 119.124C199.319 120.078 199.748 121.267 199.761 122.495C199.42 128.842 190.133 126.883 190.261 121.196H190.368Z" fill="#919191"/>
<path d="M183.912 104.987C182.614 105.271 181.455 105.994 180.628 107.034C179.802 108.074 179.359 109.367 179.375 110.695C179.349 111.299 179.451 111.901 179.676 112.462C179.9 113.023 180.241 113.529 180.676 113.948C181.111 114.367 181.631 114.689 182.199 114.892C182.768 115.095 183.374 115.175 183.976 115.126C185.253 114.881 186.409 114.211 187.257 113.224C188.104 112.238 188.592 110.993 188.641 109.694C188.712 109.057 188.639 108.411 188.427 107.806C188.214 107.201 187.867 106.651 187.413 106.199C186.958 105.746 186.407 105.402 185.801 105.192C185.195 104.983 184.549 104.912 183.912 104.987ZM181.782 109.417C181.782 107.096 186.255 107.287 186.425 110.695C186.191 113.592 181.612 111.973 181.697 109.417H181.782Z" fill="#919191"/>
<path d="M298.098 113.847C280.53 112.999 263.14 117.681 248.373 127.232C233.604 136.785 222.204 150.727 215.773 167.097C218.498 165.691 221.422 164.713 224.443 164.2C231.806 150.907 242.477 139.74 255.421 131.781C268.367 123.822 283.147 119.339 298.332 118.767L298.673 113.74C298.492 113.821 298.296 113.857 298.098 113.847Z" fill="#2F2F2F"/>
<path d="M236.754 167.098C239.112 168.857 241.137 171.021 242.739 173.488C256.09 156.271 275.324 144.584 296.756 140.665L297.331 132.145H297.161C285.196 133.385 273.631 137.141 263.221 143.165C252.812 149.188 243.791 157.344 236.754 167.098Z" fill="#919191"/>
<path d="M298.033 121.559C297.888 121.64 297.728 121.69 297.564 121.708C283.142 122.105 269.067 126.208 256.689 133.62C244.312 141.032 234.05 151.505 226.891 164.031C229.734 163.941 232.55 164.634 235.027 166.033C242.235 155.813 251.537 147.243 262.31 140.894C273.086 134.544 285.089 130.56 297.521 129.205L298.033 121.559Z" fill="#2F2F2F"/>
<path d="M333.181 230.102L326.791 233.275C326.791 251.238 326.791 269.202 326.791 287.164C326.78 287.565 326.669 287.957 326.469 288.302C326.269 288.649 325.984 288.939 325.641 289.145C319.089 292.713 312.867 296.856 307.046 301.521C306.215 302.266 304.085 303.651 305.299 304.545C306.524 305.054 307.866 305.216 309.176 305.014C315.193 304.33 321.114 302.98 326.833 300.988C329.645 300.094 336.014 299.092 336.205 295.578C336.355 295.344 336.504 298.986 333.181 230.102Z" fill="#919191"/>
<path d="M369.049 294.855C359.527 288.72 359.336 289.508 359.336 288.465C359.336 288.465 359.336 249.401 359.336 234.192L352.69 234.853C349.9 292.767 349.879 287.102 349.836 293.939C349.836 296.708 351.433 298.007 353.883 298.88C359.783 301.01 373.522 305.59 379.784 304.972L381.04 304.695V304.546C377.596 300.687 373.545 297.413 369.049 294.855Z" fill="#919191"/>
<path d="M387.792 152.019C378.71 150.956 369.504 152.065 360.933 155.257C360.549 155.385 360.315 155.257 360.209 155.023C359.527 154.277 361.359 151.231 360.997 139.282C360.762 131.912 359.612 123.69 354.926 117.705C352.794 115.14 349.995 113.214 346.839 112.139C343.682 111.064 340.289 110.882 337.034 111.613C335.247 112.13 333.584 113.005 332.146 114.184C330.706 115.363 329.522 116.821 328.663 118.472C322.998 128.185 323.85 141.135 325.021 151.828C325.021 152.53 324.233 154.171 323.317 153.958C318.563 152.781 313.704 152.068 308.812 151.828C302.294 151.487 294.115 151.657 288.832 156.088C283.55 160.518 286.021 166.738 290.323 170.998C297.565 178.282 307.981 183.181 317.523 186.76C318.354 187.079 317.63 188.634 317.31 188.89C314.953 191.55 312.814 194.4 310.92 197.41C305.255 206.441 298.758 222.181 310.218 229.807C314.754 232.831 320.186 231.596 324.489 228.827C330.879 224.567 335.309 217.368 337.78 210.04C337.971 209.487 339.164 207.91 339.782 208.912C343.124 213.696 346.92 218.145 351.114 222.203C354.571 225.726 358.66 228.565 363.169 230.574C368.345 232.704 375.566 232.704 377.739 226.463C379.911 220.222 377.952 212.916 375.971 207.058C373.764 200.225 370.392 193.827 366.002 188.144C365.385 187.356 366.386 185.567 367.28 185.482C370.744 185.028 374.169 184.316 377.526 183.352C383.564 181.899 389.292 179.373 394.438 175.897C406.813 167.142 405.322 154.575 387.792 152.019ZM335.65 165.225C331.752 165.758 330.538 160.198 330.516 157.366C330.495 154.533 331.773 149.037 335.437 148.228C339.526 147.312 340.719 153.276 340.804 156.066C340.698 159.112 339.569 164.608 335.65 165.225ZM347.982 165.779C344.085 166.312 342.849 160.731 342.849 157.898C342.849 155.065 344.106 149.57 347.769 148.76C351.859 147.844 353.052 153.808 353.137 156.599C353.031 159.666 351.88 165.225 347.982 165.694V165.779Z" fill="#2F2F2F"/>
<path d="M269.407 274.11C268.84 271.017 268.527 267.882 268.469 264.738C266.182 264.143 263.956 263.33 261.824 262.31C257.564 268.039 257.564 267.848 257.031 268.55C257.675 274.661 258.938 280.694 260.801 286.549C261.227 287.912 262.441 293.067 264.231 294.238C264.346 292.351 264.246 290.458 263.932 288.594C263.805 287.657 265.615 285.463 266.212 286.996C266.808 288.53 267.681 291.789 269.002 292.854C269.215 293.386 269.3 293.386 269.279 292.854C269.225 291.116 269.034 289.386 268.704 287.678C268.533 286.634 270.344 284.121 270.834 285.761C271.541 287.74 272.702 289.527 274.22 290.979C274.497 287.167 271.366 284.802 269.407 274.11Z" fill="#919191"/>
<path d="M208.384 279.009C208.384 285.399 208.149 291.598 208.043 297.902L219.502 298.392C218.842 291.619 218.16 284.824 217.372 278.051L208.384 279.009Z" fill="#919191"/>
<path d="M234.028 276.088C233.262 283.543 232.516 290.998 231.898 298.432L243.443 297.26C243.315 289.997 243.166 282.734 243.038 275.449L234.028 276.088Z" fill="#919191"/>
<path d="M183.162 268.188C181.616 269.409 179.798 270.239 177.863 270.61C175.928 270.981 173.932 270.881 172.044 270.318C168.188 269.147 165.164 266.25 161.671 264.439C160.968 264.077 159.668 263.289 159.775 264.439C159.881 265.59 162.48 267.145 163.311 268.167C164.141 269.189 162.629 271.213 161.5 270.766C159.391 269.952 157.173 269.458 154.919 269.296C156.89 271.168 159.224 272.619 161.777 273.556C162.906 274.003 161.479 276.623 160.414 276.431C158.119 275.858 155.77 275.522 153.406 275.43C154.003 275.856 156.921 277.454 157.666 277.795C162.6 280.717 168.094 282.568 173.79 283.226C178.247 283.667 182.714 282.493 186.378 279.916C190.041 277.341 192.657 273.532 193.748 269.189C190.2 269.943 186.506 269.594 183.162 268.188Z" fill="#919191"/>
<path d="M283.273 221.859C281.931 222.051 282.421 220.176 282.954 219.58C286.298 216.142 288.43 211.707 289.024 206.949C289.039 205.021 288.481 203.134 287.425 201.522C286.366 199.911 284.856 198.65 283.082 197.896C280.227 196.427 274.562 194.19 272.432 197.705C272.006 198.365 270.429 199.387 270.429 197.875C270.457 194.576 269.516 191.338 267.724 188.567C261.334 179.11 247.17 186.927 246.126 187.055C245.082 187.182 245.849 185.436 242.335 178.769C235.753 166.33 226.168 164.029 214.517 170.462C207.403 174.509 201.929 181.602 204.634 189.291C204.889 190.037 203.654 192.465 202.717 191.655C195.688 185.478 184.676 185.265 179.628 193.381C175.687 199.771 181.608 207.524 186.635 211.379C187.679 212.189 186.231 214.723 185.016 214.17C178.861 211.294 170.447 211.55 167.231 218.43C164.249 224.82 164.59 235.15 173.344 236.151C174.856 236.343 173.344 239.048 172.236 239.091C170.277 239.091 167.976 241.902 167.359 243.564C166.895 244.658 166.656 245.836 166.656 247.025C166.656 248.213 166.895 249.391 167.359 250.486C169.893 255.492 176.475 251.359 179.841 249.506C181.459 248.633 181.012 251.338 180.181 251.956C178.243 253.362 178.499 258.346 179.308 260.369C182.12 267.356 195.39 268.889 200.438 263.074C201.907 261.392 202.12 263.692 203.547 265.396C205.002 267.207 206.653 268.849 208.468 270.295C211.671 272.647 215.55 273.895 219.522 273.852C224.528 273.852 226.147 271.573 229.725 268.165C229.868 268.016 230.051 267.912 230.251 267.867C230.451 267.82 230.662 267.837 230.854 267.909C236.366 270.919 242.776 271.85 248.916 270.529C254.646 269.102 255.69 267.27 256.797 265.673C257.309 264.949 256.797 265.524 261.356 259.645C261.654 259.262 262.25 258.836 262.74 259.091C265.305 260.348 268.006 261.298 270.792 261.924C281.25 264.161 284.594 258.601 282.315 248.484C282.219 247.983 282.306 247.466 282.562 247.025C282.815 246.582 283.218 246.247 283.699 246.077C289.876 244.629 295.287 239.815 295.18 233.148C295.074 226.481 290.196 220.879 283.273 221.859ZM219.586 230.805C213.814 231.742 212.025 223.094 212.025 219.047C212.025 214.617 213.729 206.885 219.118 206.012C224.933 205.032 226.573 213.722 226.679 217.748C226.573 222.178 225.039 229.91 219.522 230.805H219.586ZM236.2 231.87C230.428 232.807 228.66 224.159 228.639 220.112C228.639 215.682 230.343 207.971 235.732 207.077C241.547 206.118 243.208 214.809 243.293 218.834C243.187 223.265 241.653 230.975 236.2 231.87Z" fill="#2F2F2F"/>
<path d="M298.714 104.711C281.632 103.815 264.632 107.635 249.573 115.754C234.516 123.872 221.983 135.976 213.344 150.74C208.121 159.343 204.566 168.852 202.864 178.771C202.758 179.644 202.63 180.496 202.523 181.348C204.323 176 208.032 171.504 212.939 168.718C219.252 151.217 230.972 136.179 246.399 125.782C261.829 115.385 280.166 110.169 298.757 110.888L299.162 104.605C299.029 104.689 298.872 104.727 298.714 104.711Z" fill="#2F2F2F"/>
<path d="M48.4624 162.282C36.364 159.854 22.093 154.209 16.5124 143.112C9.71766 129.927 14.0629 111.546 20.3677 98.3821C21.2623 96.4864 21.7096 95.2084 23.8183 94.6333C28.3978 93.3979 33.8506 92.5033 37.642 89.2444C35.152 89.1916 32.6629 89.3769 30.2083 89.7982C29.0794 89.9473 29.2285 88.4989 29.6545 87.8599C30.5065 86.5819 31.3159 85.2613 32.104 83.9194C33.1051 82.1941 35.2138 79.4464 35.1925 77.3803C35.1925 76.6774 35.086 77.0608 34.3831 77.5294C32.4043 79.1785 30.5793 81.0035 28.9303 82.9822C27.6949 84.4306 26.8003 82.9822 27.5032 81.6616C28.2061 80.341 31.0177 74.1214 29.6332 74.0362C28.6108 74.0362 26.5234 76.7413 25.927 77.4229C25.3306 78.1045 24.6916 78.8074 24.1165 79.5529C23.2219 80.6605 21.8587 80.0002 22.4977 78.637C23.2841 77.0359 23.905 75.3588 24.3508 73.6315C24.5851 72.6091 24.8407 71.9488 23.7331 72.5878C22.707 73.4209 21.8472 74.4399 21.1984 75.5911C19.0684 78.637 17.4922 81.9811 15.49 85.1761C6.98512 98.9151 2.51932 114.771 2.60346 130.929C2.35913 136.873 3.75952 142.769 6.65046 147.969C12.6997 158.32 24.5212 165.222 36.3427 168.544L48.4624 162.282Z" fill="#2F2F2F"/>
<path d="M87.4646 221.497L81.5219 227.205C81.5219 247.213 81.5219 267.2 81.5219 287.165C81.5121 287.563 81.4039 287.951 81.2069 288.298C81.0099 288.643 80.7302 288.935 80.393 289.146C73.8275 292.709 67.597 296.859 61.7768 301.542C60.9461 302.288 58.7948 303.672 60.0302 304.567C61.2479 305.074 62.5817 305.236 63.8855 305.036C69.9092 304.352 75.8384 303.002 81.5645 301.01C84.3548 300.115 90.7448 299.114 90.9365 295.6C90.9365 295.344 91.1069 299.05 87.4646 221.497Z" fill="#919191"/>
<path d="M115.516 294.856C105.973 288.722 105.803 289.51 105.803 288.466C105.803 288.466 105.803 247.996 105.803 232.085L99.6044 226.1C99.4766 228.784 96.3668 286.358 96.3242 293.94C96.3242 296.709 97.9217 298.009 100.371 298.882C106.633 301.118 117.028 304.484 123.673 304.952C124.969 305.155 126.292 305.067 127.55 304.697C127.557 304.648 127.557 304.597 127.55 304.548C124.092 300.684 120.027 297.41 115.516 294.856Z" fill="#919191"/>
<path d="M53.04 179.876C50.7805 175.132 49.3402 170.041 48.78 164.816L19.3008 179.939C55.5108 179.939 51.8898 179.982 53.04 179.876Z" fill="#2F2F2F"/>
<path d="M103.716 109.844C101.948 103.454 98.9234 92.5694 96.5166 84.7949C92.7038 91.9517 86.2713 104.796 84.4395 112.677C90.6448 110.591 97.173 109.631 103.716 109.844Z" fill="#2F2F2F"/>
<path d="M62.7133 126.351C67.4042 121.444 73.0031 117.495 79.1994 114.722C72.35 108.446 64.8445 102.926 56.8132 98.2568C56.2807 97.9799 55.3435 97.3622 54.4062 96.8936C59.5396 115.126 60.5194 118.598 62.7133 126.351Z" fill="#2F2F2F"/>
<path d="M68.0592 198.554C63.2347 194.759 59.0991 190.162 55.833 184.965C52.212 192.228 47.313 202.367 44.0967 209.801C43.8837 210.333 43.6494 211.356 43.3086 212.122C43.3086 212.08 66.7173 199.3 68.0592 198.554Z" fill="#2F2F2F"/>
<path d="M152.235 150.463C157.496 146.054 168.401 136.895 168.401 136.725C164.823 136.938 172.15 136.235 147.996 138.684C149.886 142.422 151.31 146.378 152.235 150.463Z" fill="#2F2F2F"/>
<path d="M26.0352 125.541C28.1652 127.522 24.5868 123.709 49.5717 151.101C51.0058 144.601 53.6817 138.439 57.4527 132.953C23.7987 125.051 26.589 125.711 26.0352 125.541Z" fill="#2F2F2F"/>
<path d="M136.111 196.385C132.175 199.872 127.765 202.783 123.012 205.033C124.801 206.907 137.091 219.943 137.773 220.688C137.624 218.473 136.26 198.6 136.111 196.385Z" fill="#2F2F2F"/>
<path d="M125.419 115.551C125.419 113.272 126.058 98.9156 126.249 94.0166C125.504 95.039 124.481 96.1466 123.97 96.8708L113.98 111.227C117.961 112.177 121.805 113.629 125.419 115.551Z" fill="#2F2F2F"/>
<path d="M143.074 130.677C152.148 110.655 151.083 113.062 151.339 112.295C150.721 112.572 152.702 111.486 134.512 121.646C137.706 124.314 140.58 127.345 143.074 130.677Z" fill="#2F2F2F"/>
<path d="M76.0032 225.162L89.5926 208.889C84.0536 207.607 78.7546 205.449 73.8945 202.499C76.6848 234.513 75.3216 219.283 76.0032 225.162Z" fill="#2F2F2F"/>
<path d="M149.679 182.754C149.253 182.179 148.678 181.561 148.167 180.922C146.129 184.924 143.572 188.641 140.562 191.977C144.823 193.084 149.082 194.447 153.492 195.64L160.925 197.77C160.286 197.003 161.351 198.388 149.679 182.754Z" fill="#2F2F2F"/>
<path d="M153.324 159.024C153.425 164.601 152.494 170.147 150.576 175.383C169.32 169.994 130.192 181.496 176.136 167.949C153.324 158.833 156.924 160.26 153.324 159.024Z" fill="#2F2F2F"/>
<path d="M108.357 228.1C109.572 223.712 113.193 210.592 113.81 208.419C108.662 209.835 103.315 210.398 97.9844 210.08C99.1346 212.083 108.272 227.93 108.357 228.1Z" fill="#2F2F2F"/>
<path d="M148.063 176.448C156.583 155.148 145.549 132.038 127.551 120.493C117.065 114.01 104.596 111.518 92.4245 113.473C80.2526 115.429 69.1918 121.701 61.2652 131.143C54.3682 139.53 50.6965 150.107 50.9134 160.963C52.0423 189.143 83.2042 214.213 114.622 205.438C122.04 203.482 128.912 199.853 134.709 194.826C140.506 189.801 145.074 183.514 148.063 176.448ZM85.675 134.722C89.1682 134.04 90.6805 137.874 91.2343 141.112C91.7455 137.938 93.2578 134.338 96.3889 133.721C100.841 132.847 102.097 139.301 102.204 142.368C102.097 145.755 100.841 151.847 96.5593 152.358C93.2578 152.742 91.7242 149.121 91.213 145.968C90.6592 149.227 89.083 152.976 85.8454 153.359C81.5854 153.849 80.2861 147.779 80.2861 144.669C80.2861 141.559 81.628 135.51 85.675 134.722ZM112.002 171.273C110.021 180.368 97.9651 184.308 89.8924 183.925C85.0858 183.548 80.4516 181.965 76.4167 179.326C72.3817 176.687 69.0757 173.075 66.8032 168.823C64.4602 164.733 61.0948 156.043 66.931 153.168C70.765 151.229 75.6427 153.977 78.5395 156.405C85.3768 162.135 85.5685 167.545 91.1917 166.693C95.9842 165.671 114.174 161.262 112.002 171.273Z" fill="#2F2F2F"/>
<path d="M220.227 310.063C220.227 307.188 220.035 304.334 219.78 301.543L207.98 301.032C207.852 306.166 207.042 310.852 202.931 314.345C201.291 315.751 196.861 318.605 197.415 319.052C197.969 319.499 201.334 318.903 202.335 318.711C209.045 317.455 210.727 314.451 214.71 312.321C216.436 311.384 217.927 310.852 218.757 312.939C218.928 313.344 218.928 313.748 219.056 314.153C219.183 314.558 220.397 317.54 220.099 315.154C220.331 313.467 220.376 311.759 220.227 310.063Z" fill="#2F2F2F"/>
<path d="M245.551 311.853C243.293 308.445 243.421 304.058 243.421 300.096L231.578 301.288C231.248 305.233 231.163 309.197 231.322 313.153C231.322 313.855 230.939 316.752 232.387 315.283C232.387 315.283 232.728 313.834 232.792 313.685C233.09 312.897 233.729 311.662 234.602 311.385C237.286 310.533 240.992 314.857 243.122 316.049C244.869 317.061 246.748 317.828 248.703 318.328C250.373 318.767 252.075 319.065 253.794 319.223C251.195 316.454 247.595 314.963 245.551 311.853Z" fill="#2F2F2F"/>
<path d="M69.3984 166.396C71.1661 170.387 74.1475 173.719 77.9184 175.917C78.1732 174.718 78.1836 173.478 77.9495 172.275C77.7152 171.071 77.2411 169.925 76.5552 168.909C75.6374 167.966 74.5136 167.248 73.2721 166.811C72.0303 166.377 70.7043 166.234 69.3984 166.396Z" fill="#2F2F2F"/>
<path d="M404.836 161.711C404.537 155.321 398.893 151.7 393.334 150.06C383.365 147.12 372.247 148.846 362.513 151.998C363.098 147.829 363.354 143.62 363.279 139.41C363.279 131.571 362.15 122.86 357.571 116.257C355.358 113.205 352.303 110.863 348.783 109.517C345.262 108.17 341.426 107.877 337.741 108.674C333.883 109.676 330.531 112.065 328.326 115.383C321.212 125.16 321.254 138.813 322.383 150.528C318.432 149.689 314.424 149.155 310.391 148.931C303.235 148.505 294.885 148.803 288.9 153.191C283.724 157.004 281.573 163.394 284.917 169.123C288.452 175.194 295.354 179.347 301.318 182.649C305.597 185.066 310.029 187.201 314.588 189.039C308.474 196.43 303 205.781 301.808 215.238C300.104 229.04 310.839 240.18 324.535 231.66C324.535 247.72 324.535 284.719 324.535 287.168C321.312 289 318.16 290.932 315.077 292.962C311.03 295.624 305.322 298.798 303.086 303.313C300.146 309.171 309.476 307.999 312.5 307.573C317.088 306.738 321.608 305.571 326.026 304.08C329.199 303.079 333.779 302.291 336.271 299.948C338.763 297.605 338.593 294.325 338.401 291.109C338.188 286.657 335.27 226.42 334.993 220.648C336.473 218.245 337.734 215.715 338.763 213.087C342.348 217.949 346.384 222.465 350.819 226.569C350.393 235.601 347.453 291.13 347.496 295.667C347.496 301.695 354.717 302.696 359.296 304.187C365.111 306.019 371.459 308.149 377.614 308.106C380.255 308.106 384.26 307.084 383.493 303.548C382.833 300.544 378.892 298.052 376.634 296.391C372.984 293.716 369.194 291.234 365.282 288.957C364.472 288.467 363.599 287.807 362.726 287.338C362.3 287.104 361.639 287.338 361.639 285.698C361.639 282.823 361.639 272.13 361.639 233.705C369.435 236.772 375.591 234.28 378.488 229.445C381.896 223.822 381.044 216.431 379.595 210.275C377.695 202.317 374.313 194.788 369.627 188.08C378.954 186.868 387.849 183.409 395.549 178.005C400.576 174.235 405.134 168.25 404.836 161.711ZM336.335 295.581C336.143 299.096 329.774 300.097 326.963 300.992C321.244 302.981 315.322 304.329 309.305 305.017C307.995 305.22 306.653 305.058 305.429 304.549C304.214 303.612 306.344 302.27 307.175 301.524C312.996 296.86 319.218 292.717 325.77 289.149C326.113 288.942 326.398 288.653 326.599 288.305C326.799 287.96 326.91 287.568 326.92 287.168C326.92 269.206 326.92 251.241 326.92 233.279L333.31 230.105C336.548 299.82 336.356 295.347 336.335 295.581ZM369.052 294.857C373.548 297.415 377.599 300.689 381.044 304.549V304.698C379.785 305.066 378.462 305.154 377.167 304.954C370.479 304.485 360.127 301.12 353.886 298.883C351.437 298.01 349.818 296.753 349.839 293.941C349.839 286.891 349.69 297.009 352.693 234.855L359.339 234.195C359.339 249.403 359.339 288.467 359.339 288.467C359.339 289.511 359.424 288.766 369.052 294.857ZM394.463 176.067C389.316 179.543 383.589 182.07 377.55 183.522C374.193 184.487 370.768 185.198 367.305 185.652C366.389 185.652 365.409 187.527 366.027 188.315C370.417 193.998 373.789 200.396 375.995 207.229C377.976 213.087 379.915 220.542 377.763 226.633C375.612 232.725 368.37 232.874 363.194 230.744C359.565 229.172 356.218 227.015 353.29 224.354C348.222 219.798 343.698 214.673 339.807 209.082C339.189 208.166 337.996 209.657 337.805 210.211C335.664 217.291 331.432 223.558 325.664 228.188C321.084 231.639 315.014 233.194 310.242 229.977C298.783 222.352 305.279 206.548 310.945 197.58C312.839 194.571 314.977 191.721 317.335 189.06C317.655 188.698 318.379 187.143 317.548 186.93C308.006 183.352 297.59 178.41 290.348 171.168C286.088 166.908 283.34 160.902 288.857 156.258C294.374 151.615 302.319 151.679 308.837 151.998C313.729 152.238 318.588 152.952 323.342 154.128C324.258 154.362 325.131 152.722 325.046 151.998C323.874 141.348 322.916 128.355 328.688 118.642C329.547 116.992 330.731 115.533 332.171 114.354C333.608 113.175 335.272 112.301 337.059 111.784C340.314 111.053 343.707 111.235 346.863 112.31C350.02 113.384 352.819 115.311 354.951 117.876C359.637 123.861 360.787 132.083 361.022 139.452C361.384 151.295 359.573 154.469 360.233 155.193C360.34 155.449 360.574 155.555 360.958 155.427C369.507 152.182 378.707 151.014 387.796 152.02C405.24 154.576 406.966 167.1 394.463 176.067Z" fill="#919191"/>
<path d="M347.77 148.672C344.106 149.481 342.85 154.678 342.85 157.809C342.85 160.941 344.085 166.329 347.983 165.69C351.881 165.051 353.031 159.663 353.138 156.51C353.031 153.72 351.86 147.756 347.77 148.672ZM347.365 162.389C343.936 160.259 344.703 149.609 348.622 151.931C350.432 153.038 350.752 155.956 350.752 157.809C350.752 159.663 350.07 164.05 347.323 162.389H347.365Z" fill="#919191"/>
<path d="M347.981 154.404C346.384 154.809 345.617 156.896 345.617 158.366C345.617 159.495 346.171 161.369 347.747 161.071C349.323 160.773 350.133 158.707 350.175 157.088C350.026 155.959 349.451 153.999 347.981 154.404Z" fill="#919191"/>
<path d="M335.649 165.225C339.568 164.692 340.697 159.197 340.804 156.066C340.804 153.276 339.526 147.312 335.436 148.227C331.772 149.037 330.516 154.213 330.516 157.365C330.516 160.518 331.751 165.672 335.649 165.225ZM336.309 151.486C338.098 152.573 338.439 155.512 338.439 157.365C338.439 159.218 337.694 163.606 334.989 161.945C331.602 159.772 332.411 148.994 336.309 151.401V151.486Z" fill="#919191"/>
<path d="M338.269 156.317C338.12 154.996 337.076 153.378 335.67 153.974C334.938 154.413 334.369 155.079 334.05 155.871C333.73 156.663 333.679 157.538 333.903 158.362C334.691 162.111 338.802 160.662 338.269 156.317Z" fill="#919191"/>
<path d="M331.072 145.562C331.419 145.43 331.726 145.209 331.962 144.921C332.197 144.633 332.352 144.289 332.414 143.922C332.621 143.245 333.07 142.668 333.675 142.299C334.278 141.93 334.998 141.795 335.694 141.92C336.951 141.92 338.229 139.108 336.802 138.981C331.413 138.363 328.687 146.052 331.072 145.562Z" fill="#919191"/>
<path d="M347.982 137.917C346.726 137.81 345.448 140.75 346.875 140.856C348.191 140.967 349.441 141.484 350.451 142.335C351.463 143.185 352.185 144.328 352.519 145.606C352.711 146.352 353.499 146.139 353.946 145.777C354.255 145.522 354.492 145.192 354.634 144.819C354.775 144.445 354.817 144.041 354.756 143.647C354.349 142.113 353.48 140.742 352.27 139.717C351.058 138.693 349.563 138.064 347.982 137.917Z" fill="#919191"/>
<path d="M350.796 169.481C348.947 171.168 347.699 173.411 347.239 175.871C344.838 176.67 342.276 176.862 339.784 176.425C339.419 173.581 338.293 170.887 336.525 168.629C335.651 167.5 333.756 170.078 334.522 171.057C335.947 172.802 336.919 174.872 337.353 177.083C337.788 179.292 337.673 181.575 337.015 183.731C336.354 185.861 338.548 185.52 339.145 183.923C339.607 182.481 339.886 180.983 339.975 179.471C342.363 179.825 344.802 179.545 347.047 178.662C347.034 180.913 347.328 183.156 347.92 185.328C348.304 186.883 350.434 184.583 350.05 183.411C349.092 179.577 348.197 174.891 351.435 171.739C352.414 170.695 352.329 167.948 350.796 169.481Z" fill="#919191"/>
<path d="M298.097 113.848C299.354 113.848 300.611 110.973 299.205 110.909C280.542 110.091 262.107 115.259 246.587 125.658C231.068 136.058 219.279 151.145 212.94 168.717C208.032 171.503 204.324 176 202.524 181.348C202.524 180.496 202.758 179.644 202.865 178.771C204.567 168.851 208.122 159.343 213.344 150.74C221.977 135.971 234.51 123.863 249.569 115.744C264.629 107.625 281.63 103.807 298.715 104.711C299.95 104.711 301.207 101.835 299.822 101.771C248.021 99.2367 204.888 138.194 199.712 185.842C195.933 184.034 191.612 183.706 187.602 184.924C183.593 186.143 180.185 188.818 178.05 192.424C174.536 198.303 176.538 204.672 180.457 209.613C176.938 209.055 173.335 209.814 170.34 211.743C162.863 216.983 159.008 233.235 169.19 238.091C167.464 239.521 166.137 241.372 165.339 243.465C164.54 245.559 164.296 247.826 164.631 250.041C164.692 251.515 165.295 252.912 166.326 253.966C167.356 255.021 168.741 255.655 170.212 255.749C172.692 255.615 175.103 254.884 177.241 253.619C176.679 255.577 176.477 257.617 176.645 259.647C176.788 261.087 177.243 262.48 177.979 263.726C178.714 264.974 179.713 266.046 180.905 266.868C178.719 267.896 176.247 268.152 173.897 267.592C169.914 266.612 166.825 263.502 163.247 261.649C160.84 260.393 158.369 260.35 157.411 263.332C157.216 263.852 157.134 264.408 157.171 264.964C157.208 265.517 157.362 266.058 157.624 266.548C156.37 266.354 155.101 266.269 153.832 266.293C152.299 266.293 150.978 269.275 153.342 272.107C152.472 271.92 151.563 272.033 150.765 272.427C150.335 272.661 149.97 272.998 149.702 273.407C149.434 273.816 149.272 274.284 149.23 274.772C149.188 275.26 149.267 275.75 149.46 276.199C149.654 276.649 149.956 277.043 150.339 277.347C151.947 278.521 153.675 279.52 155.494 280.329C160.692 283.467 166.503 285.45 172.534 286.144C177.891 286.521 183.203 284.943 187.487 281.705C191.771 278.466 194.737 273.786 195.836 268.529C197.477 268.003 199.008 267.181 200.351 266.101C201.022 267.194 201.831 268.197 202.758 269.083C203.836 270.31 205.003 271.458 206.252 272.512C205.634 306.145 205.868 306.038 204.867 308.616C203.078 313.195 196.816 314.516 195.005 318.648C192.279 324.846 206.06 320.331 208.083 319.308C210.401 317.911 212.648 316.397 214.814 314.771C215.964 314.154 216.22 314.047 216.752 315.24C217.285 316.433 216.923 317.668 217.988 318.584C218.337 318.91 218.782 319.117 219.257 319.174C219.73 319.232 220.212 319.138 220.629 318.904C222.993 317.668 222.482 313.813 222.546 311.662C222.759 304.121 222.056 298.647 219.82 276.794C224.25 276.453 226.487 274.238 229.809 271.064C230.597 271.469 231.428 271.831 232.259 272.171C229.596 298.456 228.979 303.717 228.915 308.999C228.659 311.877 228.766 314.776 229.234 317.626C229.831 319.883 232.621 319.756 233.963 316.987C234.246 316.122 234.472 315.24 234.644 314.345C237.222 315.134 239.139 317.413 241.439 318.755C243.887 320.15 246.562 321.102 249.341 321.566C251.109 321.864 254.006 322.461 255.731 321.311C256.296 320.925 256.701 320.346 256.869 319.683C257.037 319.021 256.958 318.32 256.647 317.711C256.596 317.523 256.494 317.353 256.349 317.221C254.219 314.58 250.918 313.153 248.639 310.597C245.571 307.167 245.955 302.204 245.891 297.923L245.444 274.046C248.858 273.737 252.136 272.557 254.965 270.617C255.706 277.332 257.184 283.948 259.374 290.34C259.991 292.087 261.738 298.754 264.72 297.284C265.204 296.99 265.617 296.594 265.93 296.123C266.241 295.65 266.448 295.118 266.531 294.558C267.489 296.155 268.661 297.199 270.066 296.24C270.61 295.825 271.055 295.295 271.368 294.688C271.681 294.081 271.856 293.41 271.877 292.726C272.518 293.469 273.232 294.147 274.007 294.749C274.582 295.197 275.413 294.217 275.647 293.834C278.714 288.679 274.603 282.864 273.134 277.816C271.947 273.714 271.234 269.492 271.004 265.228C282.058 266.974 286.723 259.413 285.04 248.55C288.408 247.525 291.398 245.529 293.639 242.814C295.878 240.096 297.266 236.779 297.629 233.278C298.055 225.844 293.582 219.092 286.254 218.858C289.513 214.47 292.154 208.847 291.409 203.564C290.365 196.173 278.97 189.889 272.835 194.639C272.573 191.378 271.432 188.252 269.534 185.587C264.188 178.537 254.624 180.88 247.616 183.883C246.79 180.846 245.58 177.925 244.016 175.192C256.986 158.455 275.715 147.135 296.564 143.434C297.735 143.242 298.694 140.26 297.117 140.559C275.615 144.443 256.307 156.141 242.909 173.403C241.307 170.937 239.281 168.773 236.924 167.013C243.963 157.213 253.003 149.02 263.446 142.976C273.89 136.932 285.496 133.175 297.501 131.953C298.608 131.57 299.46 128.929 297.863 129.099C285.398 130.431 273.359 134.406 262.554 140.761C251.746 147.115 242.421 155.702 235.198 165.948C232.725 164.538 229.907 163.846 227.062 163.946C234.221 151.42 244.483 140.948 256.86 133.535C269.238 126.123 283.313 122.021 297.735 121.623C298.992 121.623 300.206 118.641 298.843 118.662C283.594 119.191 268.744 123.659 255.734 131.632C242.726 139.606 232.003 150.812 224.612 164.159C221.592 164.672 218.667 165.65 215.943 167.056C222.371 150.722 233.748 136.81 248.481 127.268C263.214 117.726 280.563 113.034 298.097 113.848ZM173.684 283.29C166.484 282.757 160.009 279.328 153.854 275.792L153.406 275.494C155.771 275.584 158.119 275.92 160.414 276.495C161.479 276.687 162.906 274.067 161.777 273.62C160.415 273.132 159.115 272.489 157.901 271.703C156.813 271.057 155.811 270.278 154.919 269.381C157.173 269.543 159.391 270.037 161.5 270.851C162.629 271.298 164.056 269.168 163.311 268.252C162.565 267.336 159.881 265.739 159.881 264.525C159.881 263.311 161.074 264.163 161.777 264.525C165.292 266.357 168.295 269.232 172.15 270.404C174.039 270.966 176.034 271.066 177.969 270.695C179.905 270.325 181.722 269.494 183.269 268.274C186.574 269.679 190.228 270.052 193.748 269.339C192.633 273.684 189.994 277.484 186.31 280.044C182.627 282.606 178.146 283.759 173.684 283.29ZM220.224 310.064C220.363 311.719 220.32 313.383 220.097 315.027C220.416 317.477 219.032 314.58 219.053 314.026C219.074 313.472 218.925 313.217 218.755 312.812C217.924 310.682 216.433 311.257 214.708 312.194C210.725 314.324 209.042 317.391 202.332 318.584C201.331 318.776 198.264 319.585 197.412 318.925C196.56 318.265 201.289 315.623 202.929 314.218C207.04 310.724 207.849 306.038 207.977 300.905L219.777 301.416C220.033 304.249 220.224 307.103 220.224 310.064ZM208.041 297.987C208.041 291.597 208.275 285.399 208.382 279.094L217.391 278.114C218.101 284.888 218.812 291.667 219.521 298.456L208.041 297.987ZM234.027 276.176L242.93 275.537C243.058 282.821 243.207 290.085 243.335 297.348L231.79 298.52C232.514 290.894 233.26 283.546 234.027 276.091V276.176ZM245.55 311.939C247.68 315.048 251.195 316.561 253.687 319.223C251.968 319.066 250.266 318.767 248.596 318.329C246.641 317.828 244.762 317.061 243.015 316.049C240.885 314.857 237.243 310.533 234.495 311.385C233.622 311.662 232.983 312.897 232.685 313.685C232.685 313.834 232.387 315.176 232.28 315.283C230.832 316.838 231.258 313.941 231.215 313.153C231.055 309.197 231.141 305.233 231.471 301.289L243.314 300.096C243.42 304.058 243.292 308.445 245.55 311.853V311.939ZM271.77 283.034C272.537 285.164 274.454 288.423 274.326 291.065C272.808 289.612 271.647 287.825 270.94 285.846C270.343 284.206 268.533 286.719 268.81 287.763C269.148 289.469 269.34 291.201 269.385 292.939C269.385 293.471 269.385 293.471 269.108 292.939C267.787 291.874 266.978 288.679 266.318 287.081C265.657 285.484 263.911 287.742 264.038 288.679C264.352 290.543 264.452 292.436 264.337 294.323C262.547 293.152 261.333 287.933 260.907 286.634C259.039 280.779 257.776 274.749 257.137 268.636C257.648 268.039 257.137 268.636 261.93 262.395C264.062 263.415 266.288 264.229 268.575 264.823C268.667 270.996 269.747 277.115 271.77 282.949V283.034ZM222.78 167.418C230.96 165.842 236.86 169.782 241.226 176.982C245.912 184.714 244.741 187.632 246.083 187.142C247.126 187.014 261.312 179.218 267.681 188.654C269.472 191.425 270.414 194.663 270.386 197.962C270.386 199.475 271.962 198.452 272.388 197.792C274.518 194.277 280.163 196.514 283.038 197.983C284.812 198.738 286.323 199.998 287.381 201.609C288.438 203.221 288.996 205.108 288.981 207.036C288.387 211.794 286.254 216.229 282.91 219.667C282.378 220.263 281.888 222.138 283.23 221.946C290.152 220.966 295.03 226.653 295.115 233.32C295.2 239.987 289.812 244.801 283.635 246.249C283.153 246.418 282.751 246.754 282.497 247.197C282.241 247.638 282.154 248.156 282.25 248.656C284.55 258.838 281.121 264.312 270.727 262.096C267.941 261.472 265.238 260.522 262.675 259.264C262.185 259.008 261.589 259.434 261.291 259.817C258.799 263.098 255.944 267.059 255.284 267.698C253.42 269.187 251.231 270.216 248.894 270.702C242.753 272.027 236.342 271.098 230.832 268.082C230.64 268.007 230.429 267.992 230.229 268.039C230.029 268.084 229.846 268.188 229.703 268.337C225.933 271.916 223.909 274.727 216.923 273.854C211.129 273.045 207.231 269.999 203.525 265.483C202.098 263.779 201.885 261.479 200.415 263.161C195.282 269.104 182.055 267.422 179.286 260.456C178.476 258.454 178.221 253.449 180.159 252.043C180.99 251.425 181.437 248.72 179.818 249.593C176.453 251.447 169.871 255.579 167.336 250.573C166.873 249.478 166.634 248.301 166.634 247.112C166.634 245.923 166.873 244.746 167.336 243.651C167.975 241.989 170.255 239.284 172.214 239.178C173.343 239.178 174.834 236.43 173.322 236.238C164.567 235.237 164.227 224.885 167.209 218.517C170.425 211.637 178.838 211.381 184.994 214.257C186.208 214.81 187.657 212.276 186.613 211.466C181.586 207.611 175.665 199.858 179.605 193.468C184.611 185.331 195.58 185.502 202.694 191.743C203.632 192.552 204.824 190.124 204.611 189.378C201.054 179.005 212.173 169.356 222.844 167.354L222.78 167.418Z" fill="#919191"/>
<path d="M236.198 231.872C241.651 230.977 243.185 223.352 243.291 218.836C243.291 214.81 241.545 206.056 235.73 207.078C230.341 207.973 228.637 215.598 228.637 220.114C228.658 224.161 230.426 232.809 236.198 231.872ZM236.646 210.188C240.16 211.551 240.906 216.983 240.906 220.114C240.906 222.904 239.755 230.487 235.218 228.762C228.722 226.227 230.021 207.632 236.56 210.188H236.646Z" fill="#919191"/>
<path d="M235.584 222.242C237.608 221.88 238.481 219.26 238.566 217.215C238.566 215.745 237.863 212.955 235.797 213.488C233.731 214.02 232.922 216.704 232.922 218.514C232.943 219.963 233.625 222.604 235.584 222.242Z" fill="#919191"/>
<path d="M219.12 206.013C213.731 206.886 212.027 214.533 212.027 219.049C212.027 223.096 213.817 231.829 219.589 230.806C225.042 229.912 226.575 222.286 226.682 217.749C226.575 213.724 224.935 205.033 219.12 206.013ZM218.673 227.675C212.113 225.162 213.412 206.567 220.036 209.123C226.66 211.679 225.276 230.231 218.673 227.675Z" fill="#919191"/>
<path d="M217.926 218.473C217.926 219.922 218.607 222.563 220.567 222.201C222.527 221.839 223.464 219.24 223.549 217.174C223.549 215.704 222.846 212.914 220.78 213.447C218.714 213.979 217.926 216.705 217.926 218.473Z" fill="#919191"/>
<path d="M223.421 236.004C223.208 234.108 220.971 236.004 221.099 237.303C221.376 240.051 223.229 244.375 226.68 243.693C230.13 243.012 231.792 238.262 232.239 235.173C232.558 233.043 230.109 234.385 230.109 235.748C229.853 237.474 229.001 241.414 226.488 240.754C224.571 240.2 223.591 237.644 223.421 236.004Z" fill="#919191"/>
<path d="M212.494 198.537C211.578 200.262 213.239 201.242 214.155 199.517C214.834 198.245 215.761 197.121 216.879 196.209C218 195.299 219.288 194.62 220.673 194.213C221.802 193.872 222.803 190.869 221.227 191.338C219.365 191.896 217.633 192.822 216.134 194.058C214.634 195.293 213.397 196.816 212.494 198.537Z" fill="#919191"/>
<path d="M237.393 193.381C239.129 193.675 240.767 194.386 242.166 195.456C243.566 196.525 244.684 197.918 245.423 199.515C246.105 201.028 248.149 198.685 247.553 197.598C246.733 195.741 245.47 194.116 243.872 192.863C242.275 191.611 240.392 190.772 238.394 190.42C237.286 190.207 235.966 193.125 237.393 193.381Z" fill="#919191"/>
<path d="M176.007 164.519C152.002 154.913 155.239 156.148 153.088 155.488C153.088 154.593 152.854 153.72 152.705 152.847L169.319 138.81C174.644 134.316 173.366 133.272 169.319 133.698L146.613 135.998C145.91 134.784 145.186 133.634 144.483 132.484C145.739 129.694 151.192 117.574 152.641 114.421C154.43 110.502 156.283 106.839 150.873 109.863L132.533 120.066C130.957 118.89 129.322 117.795 127.634 116.786C127.634 113.676 128.295 99.405 128.465 95.3793C128.678 89.6922 128.465 86.8593 124.674 92.4825L111.894 110.779C110.105 110.438 108.294 110.183 106.462 110.012C106.462 110.012 100.243 87.8817 99.4972 84.8784C99.1138 83.5578 98.986 81.7473 97.8997 80.8314C97.6867 80.6397 97.282 80.8314 97.0903 80.8314C95.3437 81.726 94.4704 84.4737 93.5971 86.1351C89.7844 93.441 84.0973 105.092 82.2016 113.101C75.6993 107.235 68.7487 101.887 61.4128 97.1045C59.4106 95.8904 55.4062 92.8446 52.8928 93.3984C52.5262 93.5317 52.2031 93.763 51.959 94.0672C51.7149 94.3713 51.559 94.7368 51.5083 95.1236C50.9971 96.9341 52.3603 99.5754 52.8289 101.279L60.5395 128.65C59.4319 129.992 59.7088 129.672 59.3041 130.205C57.7492 129.694 61.6045 130.631 24.6703 122.004C22.8598 121.578 20.4103 122.835 21.6244 125.093C22.5961 126.431 23.7181 127.653 24.9685 128.735L48.8245 154.891C48.6541 156.297 48.5476 157.703 48.505 159.151C36.1723 156.702 21.6031 150.12 17.3005 138.171C14.2759 129.651 15.1705 120.449 17.3005 111.951C18.5693 107.021 20.3838 102.249 22.7107 97.7222C28.6321 96.1674 35.3842 94.9745 39.6016 90.182C41.05 88.5206 41.5186 86.412 38.8348 86.2629C36.7457 86.2039 34.6557 86.3466 32.5939 86.6889C33.4459 85.3043 34.2553 83.8986 35.0008 82.4289C35.7463 80.9592 38.4301 76.7418 37.1308 74.7396C36.151 73.1208 33.7441 74.7396 31.5502 76.8696C32.4448 74.2923 32.8282 71.7576 31.1668 71.0547C29.8462 70.4796 28.0783 71.715 26.4808 73.3338C26.992 71.3955 27.0346 69.6276 25.6714 69.0738C22.8598 68.094 18.0673 76.2945 16.555 78.8718C15.9586 79.9155 13.8925 83.6217 14.1481 83.3022C7.51709 93.5328 3.15896 105.067 1.36805 117.127C0.132653 124.88 -0.761947 133.442 0.942053 141.174C4.20095 155.956 17.9821 165.456 32.2531 170.398L21.9865 175.872C19.6673 176.869 17.4185 178.021 15.2557 179.323C14.2972 180.004 11.9329 182.88 17.0449 182.88H51.8704C52.7892 182.99 53.7141 183.039 54.6394 183.029C54.5329 183.242 44.2024 204.329 41.3908 211.209C40.6761 212.361 40.3547 213.714 40.4749 215.064C40.5066 215.194 40.5762 215.313 40.6746 215.403C40.7733 215.494 40.8964 215.554 41.0287 215.575C42.1301 215.49 43.1821 215.083 44.0533 214.404C73.639 198.343 69.6133 200.729 70.2949 200.218L71.2108 200.857C71.2108 202.625 71.5942 204.499 71.7646 206.224C72.0202 209.228 73.0852 221.39 73.3621 224.479C73.3621 225.693 73.3621 227.631 74.0863 228.739C74.1717 228.843 74.2854 228.92 74.4138 228.962C74.5423 229.005 74.6799 229.007 74.8105 228.973C75.9394 228.632 76.4932 227.737 77.2387 226.843L79.0918 224.606C79.0918 243.031 79.0918 284.758 79.0918 287.207C75.8968 289.039 72.7018 290.977 69.6346 293.001C65.6089 295.663 59.9005 298.837 57.6427 303.352C54.7246 309.21 64.0327 308.038 67.0573 307.612C71.6519 306.78 76.1796 305.612 80.6041 304.119C83.7565 303.118 88.3573 302.33 90.8494 299.987C93.3415 297.644 93.1711 294.364 92.9794 291.148C92.7664 286.696 89.5927 220.985 89.188 212.465C89.9756 211.43 90.8219 210.442 91.7227 209.505C92.5747 209.66 93.4267 209.788 94.2787 209.888L97.7932 215.98C97.1968 228.547 93.8953 291.169 93.9379 295.706C93.9379 301.734 101.18 302.735 105.759 304.226C111.574 306.058 117.9 308.188 124.077 308.145C126.697 308.145 130.723 307.123 129.956 303.587C129.296 300.583 125.355 298.091 123.098 296.43C119.474 293.684 115.714 291.124 111.83 288.762C110.857 288.078 109.839 287.458 108.784 286.909C108.597 286.798 108.444 286.638 108.342 286.447C108.241 286.255 108.195 286.04 108.209 285.823C108.081 283.693 108.102 292.404 108.209 232.04C108.431 231.985 108.637 231.876 108.805 231.721C109.907 230.359 110.595 228.711 110.786 226.971C111.702 223.627 115.259 210.783 116.111 207.801C117.432 207.375 118.71 206.906 119.988 206.395L134.727 221.859C138.008 225.309 140.67 227.823 140.074 219.132C139.839 215.66 138.497 195.702 138.412 194.595C141.863 195.702 132.832 193.146 161.374 201.134C162.396 201.432 163.355 201.922 164.313 201.134C164.576 200.944 164.797 200.701 164.962 200.422C165.127 200.141 165.231 199.83 165.269 199.509C165.307 199.185 165.278 198.859 165.183 198.548C165.088 198.237 164.93 197.952 164.718 197.704C162.311 194.041 161.97 194.062 151.576 180.132C151.235 179.642 150.596 178.982 150.063 178.321L175.304 170.866C183.59 168.46 181.928 166.883 176.007 164.519ZM168.403 136.723C167.934 137.17 166.273 138.618 152.172 150.461C151.24 146.375 149.809 142.419 147.912 138.682C172.13 136.233 164.909 136.936 168.403 136.723ZM151.363 112.291C151.064 113.165 143.013 130.886 143.098 130.673C140.617 127.344 137.758 124.313 134.578 121.642C152.705 111.482 150.681 112.568 151.363 112.291ZM123.971 96.8703C124.482 96.1035 125.504 95.0385 126.25 94.0161C126.058 98.9151 125.504 113.186 125.419 115.55C121.801 113.656 117.958 112.224 113.981 111.29L123.971 96.8703ZM96.5152 84.7932C97.6228 88.3716 100.541 98.5104 103.715 109.842C97.1716 109.63 90.6434 110.589 84.4381 112.675C86.2486 104.815 92.7238 91.9074 96.5152 84.7932ZM54.4051 96.8916C55.3423 97.3602 56.2795 97.9778 56.812 98.2548C64.8442 102.922 72.3499 108.443 79.1983 114.72C73.0019 117.493 67.403 121.442 62.7121 126.349C62.137 124.283 54.3412 96.6573 54.4051 96.8916ZM26.0335 125.54C26.5873 125.71 23.9035 125.093 57.451 132.91C53.68 138.395 51.0041 144.557 49.57 151.057C24.6703 123.793 28.1422 127.478 26.0335 125.54ZM6.65045 147.969C3.75951 142.769 2.35912 136.873 2.60345 130.929C2.49636 114.741 6.96331 98.852 15.49 85.0914C17.4922 81.9603 19.0471 78.5523 21.1984 75.5064C21.8472 74.3549 22.707 73.3361 23.7331 72.5031C24.8407 71.8641 24.5851 72.5031 24.3508 73.5468C23.886 75.321 23.2363 77.0414 22.4125 78.6801C21.7735 80.0433 23.1367 80.8101 24.0313 79.596C24.6064 78.8718 25.2028 78.1689 25.8418 77.466C26.4808 76.7631 28.5256 73.9941 29.548 74.0793C30.9325 74.0793 28.0144 80.5758 27.418 81.7047C26.8216 82.8336 27.6097 84.4737 28.8451 83.0253C30.4681 81.0578 32.2646 79.24 34.2127 77.5938C34.9156 77.1252 35.0221 76.7418 35.0221 77.4447C35.0221 79.5747 32.8921 82.2585 31.9336 83.9838C31.1455 85.3257 30.3361 86.6463 29.4841 87.9243C29.0581 88.5633 28.909 90.0543 30.0379 89.8626C32.4925 89.4421 34.9816 89.2566 37.4716 89.3088C33.6802 92.4612 28.2274 93.5688 23.6479 94.6977C21.5179 95.2728 21.0919 96.5508 20.1973 98.4465C13.8073 111.695 9.54725 130.034 16.342 143.176C22.0078 154.189 36.3214 159.812 48.292 162.346L36.3427 168.545C24.5212 165.222 12.6997 158.321 6.65045 147.969ZM19.2601 179.919L48.7606 164.796C49.3263 170.019 50.7664 175.109 53.0206 179.855C51.7852 179.983 19.0471 179.94 19.3027 179.94L19.2601 179.919ZM63.9901 200.857L43.3078 212.082C43.5634 211.507 43.7977 209.079 55.8322 184.924C59.0917 190.126 63.2284 194.725 68.0584 198.514C66.7165 199.302 65.3746 200.154 64.0327 200.878L63.9901 200.857ZM90.9346 295.578C90.7429 299.092 84.3529 300.094 81.5626 300.988C75.8371 302.982 69.9076 304.332 63.8836 305.014C62.5798 305.214 61.246 305.052 60.0283 304.545C58.7929 303.608 60.9442 302.266 61.7749 301.521C67.5891 296.845 73.8125 292.705 80.3698 289.145C80.7069 288.934 80.9866 288.643 81.1836 288.298C81.3807 287.95 81.4889 287.563 81.4987 287.164C81.4987 267.185 81.4987 247.199 81.4987 227.205L87.4627 221.497C91.0624 298.262 90.9346 295.365 90.9346 295.578ZM76.0246 225.16C75.4921 220.495 76.5358 232.722 73.8946 202.561C78.7546 205.511 84.0536 207.669 89.5927 208.951L76.0246 225.16ZM115.536 294.854C120.033 297.412 124.083 300.686 127.528 304.545C127.535 304.594 127.535 304.645 127.528 304.694C126.271 305.067 124.946 305.154 123.651 304.95C116.984 304.481 106.611 301.116 100.392 298.879C97.9423 298.006 96.3235 296.749 96.3448 293.938C96.3448 287.377 96.3448 294.896 99.625 226.097L105.823 232.083C105.823 247.994 105.823 288.464 105.823 288.464C105.802 289.507 105.93 288.762 115.515 294.854H115.536ZM108.379 228.1C107.975 227.29 109.018 229.143 98.0062 210.08C103.337 210.393 108.683 209.831 113.832 208.418C113.576 209.206 109.636 223.541 108.358 228.1H108.379ZM123.034 205.032C127.787 202.782 132.197 199.871 136.133 196.384C136.453 201.432 137.773 220.602 137.773 220.602C134.472 217.024 141.33 224.266 123.012 205.032H123.034ZM160.948 197.726C144.44 193.104 145.228 193.146 140.585 191.975C143.594 188.639 146.151 184.922 148.189 180.92C148.7 181.559 149.275 182.177 149.701 182.752C150.127 183.327 160.394 197.172 160.926 197.726H160.948ZM148.168 176.426C145.257 183.306 140.848 189.451 135.262 194.409C129.676 199.37 123.053 203.021 115.877 205.096C73.5751 217.748 31.4863 169.908 60.6034 132.015C68.2856 122.406 79.1672 115.88 91.2619 113.627C103.357 111.375 115.858 113.547 126.484 119.746C145.164 131.142 156.666 154.7 148.061 176.447L148.168 176.426ZM150.681 175.361C152.554 170.223 153.491 164.79 153.45 159.322C153.45 158.768 151.618 158.108 176.156 167.842C166.273 170.888 150.809 175.318 150.575 175.382L150.681 175.361Z" fill="#919191"/>
<path d="M80.2852 144.668C80.2852 147.778 81.6058 153.849 85.8445 153.359C89.1673 152.975 90.6583 149.099 91.2121 145.968C91.7233 149.056 93.3421 152.677 96.5584 152.358C100.818 151.846 102.096 145.755 102.203 142.368C102.096 139.301 100.84 132.847 96.388 133.72C93.2569 134.338 91.7446 137.98 91.2334 141.111C90.6796 137.938 89.1034 134.104 85.6741 134.721C81.6271 135.509 80.2852 141.282 80.2852 144.668ZM96.8566 136.702C99.3274 137.575 99.8173 141.452 99.8812 143.603C99.9451 145.755 99.0931 150.739 95.9833 149.056C94.9387 148.417 94.1772 147.404 93.8533 146.223C94.9822 147.437 97.5808 146.223 97.7299 142.453C97.5808 138.321 94.2154 138.832 93.2569 142.198C93.3421 140.217 94.045 135.722 96.8566 136.702ZM86.2066 137.788C88.6774 138.64 89.146 142.517 89.2099 144.668C89.2738 146.82 88.3579 151.804 85.3333 150.142C81.2863 147.97 81.904 136.297 86.1427 137.788H86.2066Z" fill="#919191"/>
<path d="M85.6099 147.737C87.3139 147.396 88.0807 145.266 88.1446 143.477C88.1446 142.263 87.5695 140.176 86.0146 140.559C84.4597 140.942 83.5438 143.222 83.5651 144.819C83.4586 146.054 84.0337 148.057 85.6099 147.737Z" fill="#919191"/>
<path d="M91.1891 166.693C85.5872 167.545 85.3316 162.114 78.5369 156.405C75.6401 153.977 70.7624 151.23 66.9284 153.168C61.0922 156.15 64.4576 164.734 66.8006 168.823C69.0731 173.075 72.379 176.687 76.4141 179.326C80.449 181.965 85.0832 183.548 89.8898 183.925C97.9625 184.308 110.018 180.368 111.999 171.273C114.172 161.262 95.9816 165.671 91.1891 166.693ZM77.9192 175.874C74.1482 173.675 71.1669 170.344 69.3992 166.353C70.7051 166.191 72.031 166.333 73.2728 166.768C74.5144 167.205 75.6382 167.922 76.556 168.866C77.2418 169.882 77.716 171.028 77.9503 172.231C78.1844 173.435 78.1739 174.674 77.9192 175.874Z" fill="#919191"/>
<path d="M76.4952 128.629C77.1768 128.735 77.901 127.798 78.0714 127.244C78.3116 126.465 78.7943 125.782 79.4495 125.295C80.1044 124.809 80.8977 124.544 81.7137 124.539C83.3538 124.539 83.9928 121.536 82.8213 121.579C81.2647 121.686 79.7786 122.269 78.5636 123.248C77.3484 124.227 76.463 125.555 76.0266 127.053C75.8775 127.585 75.7284 128.501 76.4952 128.629Z" fill="#919191"/>
</svg>
