<svg width="15" height="15" viewBox="0 0 15 15" fill="none" xmlns="http://www.w3.org/2000/svg">
<g clip-path="url(#clip0_134_888)">
<path fill-rule="evenodd" clip-rule="evenodd" d="M2.5 8.125C3.53553 8.125 4.375 8.96444 4.375 10V13.125C4.375 14.1606 3.53553 15 2.5 15C1.46447 15 0.625 14.1606 0.625 13.125V10C0.625 8.96444 1.46447 8.125 2.5 8.125ZM7.5 0C8.53556 0 9.375 0.839469 9.375 1.875V13.125C9.375 14.1606 8.53556 15 7.5 15C6.46444 15 5.625 14.1606 5.625 13.125V1.875C5.625 0.839469 6.46444 0 7.5 0ZM12.5 4.375C13.5356 4.375 14.375 5.21447 14.375 6.25V13.125C14.375 14.1606 13.5356 15 12.5 15C11.4644 15 10.625 14.1606 10.625 13.125V6.25C10.625 5.21447 11.4644 4.375 12.5 4.375Z" fill="white"/>
</g>
<defs>
<clipPath id="clip0_134_888">
<rect width="15" height="15" fill="white"/>
</clipPath>
</defs>
</svg>
