<svg width="17" height="15" viewBox="0 0 17 15" fill="none" xmlns="http://www.w3.org/2000/svg">
<path d="M16.4681 15C16.411 15.0002 16.3542 14.992 16.3002 14.9756L13.812 14.2434C12.8439 14.7394 11.7443 15.0004 10.6248 15C8.93473 14.9985 7.31434 14.4054 6.11926 13.3508C4.92419 12.2963 4.25205 10.8664 4.25037 9.375C4.25205 7.88362 4.92419 6.45375 6.11926 5.39918C7.31434 4.34461 8.93473 3.7515 10.6248 3.75001C12.3149 3.7515 13.9353 4.34461 15.1304 5.39918C16.3254 6.45375 16.9976 7.88362 16.9993 9.375C16.9995 10.3628 16.7037 11.3331 16.1419 12.1875L16.9727 14.3859C17.0039 14.4686 17.0085 14.5573 16.9858 14.6421C16.9631 14.7268 16.914 14.8044 16.8442 14.8659C16.7438 14.9528 16.6086 15.001 16.4681 15ZM10.6248 4.68751C9.21649 4.689 7.86633 5.18334 6.8705 6.06209C5.87466 6.94084 5.31446 8.13226 5.31278 9.375C5.31446 10.6177 5.87466 11.8092 6.8705 12.6879C7.86633 13.5667 9.21649 14.061 10.6248 14.0625C11.6288 14.0617 12.6119 13.8091 13.4593 13.3341C13.5259 13.2968 13.6011 13.2731 13.6794 13.2647C13.7577 13.2562 13.8371 13.2633 13.9119 13.2853L15.6288 13.7897L15.0561 12.2756C15.0312 12.2096 15.0232 12.1395 15.0327 12.0704C15.0423 12.0014 15.0691 11.935 15.1114 11.8762C15.6498 11.1285 15.9361 10.261 15.9369 9.375C15.9352 8.13226 15.375 6.94084 14.3791 6.06209C13.3833 5.18334 12.0331 4.689 10.6248 4.68751ZM0.699798 12.1631L3.88702 11.2256C4.02072 11.1865 4.1313 11.102 4.19446 10.9909C4.25762 10.8798 4.26817 10.7511 4.22381 10.6331C4.20173 10.5747 4.16681 10.5207 4.12105 10.4741C4.07529 10.4276 4.0196 10.3895 3.95714 10.362C3.89468 10.3345 3.82669 10.3181 3.75705 10.3138C3.68742 10.3095 3.6175 10.3173 3.5513 10.3369L1.3723 10.9772L2.18929 8.8125C2.2159 8.74126 2.22275 8.66542 2.20925 8.59136C2.19576 8.51729 2.16232 8.44717 2.11174 8.38688C1.35249 7.48941 0.985822 6.38029 1.07912 5.26336C1.17242 4.14643 1.71941 3.09674 2.61957 2.3072C3.11188 1.87116 3.6973 1.52559 4.34194 1.29048C4.98658 1.05538 5.67766 0.935413 6.37518 0.93752C7.07293 0.935781 7.76414 1.05619 8.4088 1.29178C9.05345 1.52737 9.63875 1.87346 10.1308 2.31002C10.2304 2.39789 10.3655 2.44726 10.5064 2.44726C10.6472 2.44726 10.7823 2.39789 10.8819 2.31002C10.9815 2.22211 11.0375 2.10291 11.0375 1.97861C11.0375 1.85432 10.9815 1.73511 10.8819 1.64721C10.2915 1.1233 9.58914 0.707952 8.81555 0.42521C8.04197 0.142469 7.2125 -0.00204998 6.37518 2.1967e-05C5.53787 -0.00204998 4.7084 0.142469 3.93481 0.42521C3.16123 0.707952 2.45888 1.1233 1.86845 1.64721C0.821153 2.56436 0.170576 3.77599 0.029505 5.07204C-0.111566 6.36808 0.265764 7.66684 1.09608 8.74313L0.0272922 11.5706C-0.00394696 11.6533 -0.00846697 11.742 0.0142402 11.8267C0.0369474 11.9115 0.0859835 11.9891 0.155844 12.0506C0.205266 12.0941 0.263921 12.1286 0.328453 12.1521C0.392986 12.1756 0.462131 12.1876 0.531937 12.1875C0.589042 12.1877 0.645786 12.1795 0.699798 12.1631Z" fill="white"/>
</svg>
