<svg width="21" height="20" viewBox="0 0 21 20" fill="none" xmlns="http://www.w3.org/2000/svg">
<path fill-rule="evenodd" clip-rule="evenodd" d="M17.8577 4.30956C18.834 5.28588 18.834 6.85722 18.834 9.99992C18.834 13.1426 18.834 14.714 17.8577 15.6903C16.8814 16.6666 15.31 16.6666 12.1673 16.6666H8.83398C5.69132 16.6666 4.1199 16.6666 3.14365 15.6903C2.16732 14.714 2.16732 13.1426 2.16732 9.99992C2.16732 6.85722 2.16732 5.28588 3.14365 4.30956C4.1199 3.33325 5.69132 3.33325 8.83398 3.33325H12.1673C15.31 3.33325 16.8814 3.33325 17.8577 4.30956ZM5.02048 6.26647C4.79957 6.53164 4.8354 6.92574 5.10057 7.14673L6.9309 8.67209C7.66957 9.28759 8.26823 9.7865 8.79665 10.1263C9.34707 10.4803 9.88307 10.704 10.5007 10.704C11.1182 10.704 11.6542 10.4803 12.2047 10.1263C12.7331 9.7865 13.3317 9.28759 14.0704 8.67209L15.9008 7.14673C16.1659 6.92574 16.2018 6.53164 15.9808 6.26647C15.7598 6.00129 15.3657 5.96547 15.1005 6.18644L13.3015 7.68568C12.524 8.33359 11.9842 8.78192 11.5285 9.075C11.0874 9.35875 10.7882 9.454 10.5007 9.454C10.2131 9.454 9.9139 9.35875 9.47282 9.075C9.01707 8.78192 8.47732 8.33359 7.69982 7.68568L5.90074 6.18644C5.63557 5.96547 5.24148 6.00129 5.02048 6.26647Z" fill="white"/>
</svg>
