<svg width="17" height="16" viewBox="0 0 17 16" fill="none" xmlns="http://www.w3.org/2000/svg">
<path fill-rule="evenodd" clip-rule="evenodd" d="M3.09091 2.125C3.09091 0.951398 4.1288 0 5.40909 0H11.5908C12.8712 0 13.9091 0.951391 13.9091 2.125H14.6818C15.9621 2.125 17 3.0764 17 4.25V4.70753C17 5.57646 16.4229 6.35784 15.5428 6.68058L13.1603 7.55409C12.8246 8.12033 12.3312 8.69231 11.609 9.13367C10.9812 9.51724 10.2096 9.78435 9.27273 9.87891V11.3333H10.8182C12.0985 11.3333 13.1364 12.2847 13.1364 13.4583V14.1667C13.1364 14.9491 12.4445 15.5833 11.5909 15.5833H5.40909C4.55556 15.5833 3.86364 14.9491 3.86364 14.1667V13.4583C3.86364 12.2847 4.90152 11.3333 6.18182 11.3333H7.72727V9.87891C6.79039 9.78442 6.0187 9.51724 5.39094 9.1336C4.66873 8.69231 4.17532 8.12033 3.8396 7.55409L1.45723 6.68058C0.577111 6.35784 0 5.57646 0 4.70753V4.25C0 3.0764 1.03789 2.125 2.31818 2.125H3.09091ZM3.09091 3.54167H2.31818C1.89142 3.54167 1.54545 3.8588 1.54545 4.25V4.70753C1.54545 4.99718 1.73782 5.25764 2.0312 5.36521L3.18292 5.78751C3.13104 5.51528 3.0914 5.2361 3.09091 4.95907V3.54167ZM13.9091 4.95833V3.54167H14.6818C15.1086 3.54167 15.4545 3.8588 15.4545 4.25V4.70753C15.4545 4.99718 15.2621 5.25764 14.9688 5.36521L13.8171 5.78752C13.8681 5.51339 13.9091 5.23661 13.9091 4.95833ZM5.40909 1.41667C4.98233 1.41667 4.63636 1.7338 4.63636 2.125V4.95626V4.95714C4.63636 4.95889 4.63636 4.9583 4.63636 4.95714C4.64029 5.14081 4.66539 5.325 4.69829 5.50595C4.76229 5.858 4.88887 6.31657 5.13431 6.76657C5.37824 7.21381 5.73201 7.63945 6.2482 7.95494C6.75956 8.26738 7.47606 8.5 8.5 8.5C9.52386 8.5 10.2403 8.26738 10.7517 7.95487C11.2679 7.63945 11.6217 7.21381 11.8656 6.76657C12.1111 6.31656 12.2377 5.85799 12.3017 5.50595C12.3346 5.32479 12.3582 5.14142 12.3636 4.95769V2.125C12.3636 1.7338 12.0176 1.41667 11.5908 1.41667H5.40909ZM6.18182 12.75C5.75506 12.75 5.40909 13.0671 5.40909 13.4583V14.1667H11.5909V13.4583C11.5909 13.0671 11.245 12.75 10.8182 12.75H6.18182Z" fill="#EBEBEB"/>
</svg>
