<svg width="20" height="20" viewBox="0 0 20 20" fill="none" xmlns="http://www.w3.org/2000/svg">
<path d="M6.73463 13.4212C7.2566 14.5306 8.03668 15.5911 9.05709 16.5785C6.91812 16.2573 5.13963 14.9518 4.17377 13.1463L6.73459 13.4212H6.73463ZM9.01826 3.47503C6.93445 3.80155 5.19922 5.06067 4.22855 6.80378L6.73523 6.5569C7.25076 5.46991 8.019 4.43534 9.01824 3.47501L9.01826 3.47503ZM9.8042 6.58991L9.83896 3.40259H9.83189C8.71076 4.38116 7.85762 5.4405 7.28904 6.56167L9.80416 6.58999L9.8042 6.58991ZM4.39039 7.57966L3.92732 7.57554L3.46953 7.5696L3.43359 10.8801L1.58012 7.54956L0.546738 7.53833L0.496094 12.2492L0.956816 12.2557L1.41518 12.2598L1.45172 8.8639L3.35885 12.281L4.34041 12.2923L4.39049 7.57958L4.39039 7.57966ZM8.79555 8.46401L8.79967 8.04397L8.80496 7.62685L5.336 7.58974L5.28535 12.3024L8.86215 12.3401L8.86686 11.9212L8.87098 11.5035L6.27924 11.4758L6.29219 10.2463L8.59643 10.271L8.60055 9.86681L8.60467 9.46028L6.30043 9.4361L6.31166 8.43687L8.79555 8.46396V8.46401ZM13.4982 11.0987L12.8525 7.67095L11.8044 7.65854L11.0945 11.101L10.3439 7.64382L9.32049 7.63204L10.5813 12.3588L11.0485 12.3635L11.5169 12.3695L12.2963 8.66605L13.0133 12.3848L13.4835 12.3913L13.9501 12.396L15.3122 7.69743L14.3171 7.68681L13.4982 11.0987L13.4982 11.0987ZM10.3451 3.40843H10.338L10.3038 6.59519L12.8208 6.62173C12.2752 5.48817 11.4457 4.41118 10.3451 3.40843H10.3451ZM15.7205 6.65235C14.673 4.90394 12.8855 3.69138 10.802 3.44528C12.1367 4.47892 12.882 5.5294 13.3751 6.62757L15.7205 6.6523L15.7205 6.65235ZM10.8376 16.5973C12.9754 16.3234 14.7709 15.0651 15.7776 13.299L13.2278 13.4913C12.6817 14.5889 11.878 15.6317 10.8376 16.5973L10.8376 16.5973ZM12.6699 13.4854L10.2301 13.4589L10.1971 16.5025C11.2706 15.5675 12.1007 14.5524 12.6698 13.4854L12.6699 13.4854ZM19.1671 10.1779C18.9373 9.9746 18.4825 9.79198 17.7985 9.63347C17.3271 9.52036 17.019 9.42784 16.8753 9.34774C16.7285 9.27054 16.6549 9.16038 16.6567 9.01843C16.6579 8.82462 16.7304 8.66728 16.8735 8.55944C17.0143 8.45515 17.2111 8.40155 17.4603 8.40507C17.749 8.40743 17.9823 8.47698 18.1608 8.60833C18.3382 8.74091 18.4342 8.91823 18.4484 9.14331L19.4069 9.15509C19.3763 8.68083 19.1966 8.30608 18.8678 8.02448C18.5409 7.74286 18.1119 7.59972 17.5841 7.5944C17.0208 7.58794 16.5713 7.71813 16.2373 7.97972C15.9038 8.24429 15.7347 8.60952 15.73 9.06438C15.7259 9.47269 15.8472 9.77433 16.0941 9.9705C16.3445 10.1655 16.8429 10.3517 17.5876 10.5255C17.9929 10.6198 18.2563 10.7122 18.38 10.7947C18.5049 10.8796 18.5674 11.0092 18.5656 11.1883C18.5639 11.368 18.4737 11.5059 18.2964 11.606C18.1185 11.705 17.8739 11.7533 17.5588 11.7498C17.2541 11.7462 17.0155 11.6773 16.8471 11.54C16.6762 11.4051 16.589 11.2136 16.5808 10.9609L15.6328 10.9509C15.6499 11.4599 15.8261 11.8535 16.1584 12.1327C16.4912 12.4144 16.9561 12.5564 17.5505 12.5622C18.1461 12.5682 18.6169 12.4462 18.9681 12.1881C19.3204 11.9313 19.4971 11.5831 19.5018 11.14C19.5089 10.7005 19.3958 10.3788 19.1672 10.1779L19.1671 10.1779ZM9.69814 16.4942L9.73115 13.4542L7.29143 13.4276C7.83934 14.5058 8.64588 15.538 9.69812 16.4942L9.69814 16.4942Z" fill="white"/>
</svg>
