<svg width="17" height="17" viewBox="0 0 17 17" fill="none" xmlns="http://www.w3.org/2000/svg">
<path d="M2.90973 3.5C1.72213 4.82689 1 6.57912 1 8.5C1 9.07283 1.06422 9.63067 1.18585 10.1667M2.90973 3.5C4.28303 1.96563 6.27875 1 8.5 1C12.0693 1 15.0563 3.49335 15.8142 6.83333M2.90973 3.5H8.5M1.18585 10.1667H9.33333M1.18585 10.1667C1.47208 11.4281 2.07628 12.5688 2.90973 13.5M15.8142 6.83333C15.9357 7.36933 16 7.92717 16 8.5C16 12.6422 12.6422 16 8.5 16C6.27875 16 4.28303 15.0343 2.90973 13.5M15.8142 6.83333H11M2.90973 13.5H7.66667M8.5 6.83333H6.83333" stroke="#EBEBEB" stroke-width="2" stroke-linecap="round" stroke-linejoin="round"/>
</svg>
